<svg width="116" height="48" viewBox="0 0 116 48" fill="none" xmlns="http://www.w3.org/2000/svg">
<path fill-rule="evenodd" clip-rule="evenodd" d="M76.3711 34.4664L83.6701 0H110.939L109.115 8.61661H95.4772L94.5649 12.9276H106.163L104.343 21.5442H92.7401L91.8277 25.8498H105.47L103.646 34.4664H76.3711Z" fill="#1E3378"/>
<path fill-rule="evenodd" clip-rule="evenodd" d="M0 34.4664C24.253 22.9794 57.0715 15.6545 87.008 12.9222C95.0959 12.1834 103.109 11.7741 114.261 11.7741C114.696 11.7741 115.42 11.6306 116 11.487L113.751 22.1183C113.628 22.6923 112.667 22.9794 111.943 22.9794C43.5523 22.9794 2.61368 34.4717 2.61368 34.4717L0 34.4664Z" fill="#E11B22"/>
<path fill-rule="evenodd" clip-rule="evenodd" d="M36.7256 34.4664L44.0192 0H57.0768L64.8374 15.6545L68.1487 0H81.201L73.9074 34.4664H60.8551L53.2127 18.2379L49.7779 34.4664H36.7256Z" fill="#1E3378"/>
<path fill-rule="evenodd" clip-rule="evenodd" d="M24.2528 20.109L28.5087 0H41.561L36.4517 24.1276C34.8685 31.596 29.0025 34.4664 21.2151 34.4664H11.5977L13.7873 24.1276H18.1399C21.3278 24.1276 23.641 22.9794 24.2528 20.109Z" fill="#1E3378"/>
<path d="M66.0937 45.9163L66.3728 44.0824H69.2709L69.5339 42.1475H66.6358L66.8344 40.6964H69.8344L70.0974 38.7615H65.439L64.1992 47.8459H69.0777L69.3461 45.9163H66.0937Z" fill="#1E3378"/>
<path d="M76.3601 38.7615H74.3367L73.3814 40.4199C73.2365 40.6751 73.0702 40.9728 72.8823 41.3236C72.7321 40.8558 72.6515 40.5954 72.6354 40.5422L72.0344 38.7615H70.3009L71.766 43.2266L69.1416 47.8512H71.2078L72.0505 46.3894C72.2437 46.0492 72.4047 45.7621 72.5281 45.5336C72.5979 45.7728 72.6891 46.0598 72.7911 46.3841L73.2687 47.8512H75.1042L73.6498 43.5615L76.3601 38.7615Z" fill="#1E3378"/>
<path d="M81.0185 41.1694C81.0185 40.6698 80.9433 40.2339 80.7931 39.8671C80.6374 39.4791 80.412 39.1974 80.1329 39.0219C79.8592 38.8518 79.4889 38.7668 79.0381 38.7668H76.5425L75.3027 47.8512H76.9665L77.4119 44.5767H77.9271C78.4477 44.5767 78.7966 44.5555 78.9952 44.513C79.3386 44.4385 79.6177 44.3269 79.827 44.1834C80.0363 44.0399 80.2295 43.8272 80.4067 43.5562C80.5838 43.2851 80.7233 42.9395 80.8414 42.5037C80.9594 42.0678 81.0185 41.6213 81.0185 41.1694ZM77.9432 40.6751H78.5497C79.0274 40.6751 79.1401 40.7282 79.1508 40.7336C79.2098 40.7655 79.2581 40.8239 79.2957 40.909C79.3386 41.01 79.3655 41.1482 79.3655 41.3183C79.3655 41.5894 79.3118 41.8392 79.2098 42.0625C79.1132 42.2751 78.9898 42.4186 78.8341 42.509C78.7429 42.5621 78.4799 42.6525 77.7447 42.6525H77.6803L77.9432 40.6751Z" fill="#1E3378"/>
<path d="M85.4192 44.6618C85.3387 44.4492 85.2528 44.2631 85.1616 44.1037C85.6392 43.9389 86.0149 43.6359 86.2779 43.1947C86.5838 42.6844 86.7394 42.0306 86.7394 41.2598C86.7394 40.7176 86.6589 40.2498 86.5033 39.8618C86.3369 39.4525 86.1061 39.1601 85.8163 38.9954C85.5373 38.8359 85.1669 38.7615 84.6947 38.7615H81.9897L80.75 47.8459H82.4137L82.8968 44.2897H83.1436C83.4173 44.2897 83.5086 44.3535 83.53 44.3801C83.632 44.4917 83.793 44.7575 83.9755 45.3954C84.2599 46.4106 84.4585 47.1655 84.5551 47.6439L84.5981 47.8459H86.3638L86.2833 47.5322C85.972 46.3096 85.6822 45.3422 85.4192 44.6618ZM83.3851 40.6964H84.4317C84.8288 40.6964 84.9201 40.7655 84.9201 40.7655C85.0328 40.8718 85.0918 41.0472 85.0918 41.2864C85.0918 41.515 85.0435 41.7329 84.9415 41.9402C84.8503 42.1369 84.7269 42.2751 84.5712 42.3601C84.48 42.4133 84.2116 42.4984 83.4656 42.4984H83.1436L83.3851 40.6964Z" fill="#1E3378"/>
<path d="M91.7416 44.0824L92.0046 42.1475H89.1065L89.3051 40.6964H92.3052L92.5681 38.7615H87.9097L86.6699 47.8459H91.5538L91.8168 45.9163H88.5644L88.8435 44.0824H91.7416Z" fill="#1E3378"/>
<path d="M95.2194 40.5156C95.4663 40.5156 95.6327 40.59 95.7508 40.7442C95.8849 40.9196 95.9654 41.196 95.9923 41.5521L96.0084 41.802L97.6077 41.6904L97.597 41.4458C97.5594 40.6113 97.3447 39.9309 96.9529 39.4206C96.545 38.8837 95.9654 38.6126 95.2248 38.6126C94.4949 38.6126 93.926 38.889 93.5396 39.4312C93.1693 39.9468 92.9814 40.6007 92.9814 41.3714C92.9814 41.8126 93.0458 42.206 93.1693 42.5408C93.2981 42.881 93.4752 43.1681 93.7006 43.386C93.9153 43.5933 94.2373 43.8379 94.6881 44.1409C95.2248 44.497 95.3751 44.6512 95.4234 44.7149C95.5253 44.8478 95.579 45.0073 95.579 45.204C95.579 45.4432 95.5146 45.6345 95.3804 45.7993C95.2624 45.9482 95.0584 46.0173 94.7579 46.0173C94.2856 46.0173 94.1246 45.8312 94.0494 45.6877C94.0011 45.6026 93.9206 45.3634 93.8992 44.7203L93.8938 44.4598L92.3052 44.5874L92.2998 44.8159C92.2891 45.4166 92.3642 45.9535 92.5145 46.4213C92.6755 46.9103 92.96 47.3036 93.3571 47.5801C93.7543 47.8565 94.2212 48 94.7525 48C95.5307 48 96.1479 47.6917 96.588 47.091C97.0066 46.5116 97.2213 45.81 97.2213 45.002C97.2213 44.3428 97.0764 43.79 96.7866 43.3595C96.588 43.0618 96.164 42.7003 95.4878 42.2538C94.9886 41.9189 94.7954 41.7329 94.7203 41.6372C94.6291 41.5203 94.5861 41.3714 94.5861 41.1801C94.5861 40.9727 94.6344 40.8133 94.7364 40.6857C94.8223 40.5688 94.9833 40.5156 95.2194 40.5156Z" fill="#1E3378"/>
<path d="M100.881 42.2485C100.382 41.9136 100.189 41.7276 100.114 41.6319C100.023 41.5149 99.9797 41.3661 99.9797 41.1747C99.9797 40.9674 100.028 40.808 100.13 40.6804C100.216 40.5741 100.377 40.5209 100.613 40.5209C100.86 40.5209 101.026 40.5953 101.144 40.7495C101.278 40.9249 101.359 41.2013 101.386 41.5575L101.402 41.8073L103.001 41.6957L102.991 41.4511C102.953 40.6166 102.733 39.9362 102.346 39.4259C101.939 38.889 101.359 38.6179 100.618 38.6179C99.8884 38.6179 99.3196 38.8943 98.9331 39.4365C98.5628 39.9521 98.375 40.606 98.375 41.3767C98.375 41.8179 98.4394 42.2113 98.5628 42.5462C98.6916 42.8864 98.8687 43.1734 99.0941 43.3913C99.3088 43.5986 99.6308 43.8432 100.082 44.1462C100.618 44.5023 100.774 44.6565 100.817 44.7202C100.919 44.8531 100.967 45.0126 100.967 45.2093C100.967 45.4432 100.903 45.6398 100.769 45.8046C100.651 45.9535 100.447 46.0226 100.146 46.0226C99.6738 46.0226 99.5128 45.8365 99.4376 45.693C99.3893 45.608 99.3088 45.3687 99.2874 44.7256V44.4598L97.6988 44.5874L97.6934 44.8159C97.6827 45.4166 97.7578 45.9535 97.9081 46.4212C98.0691 46.9103 98.3535 47.3036 98.7453 47.58C99.1425 47.8565 99.6094 48 100.141 48C100.919 48 101.536 47.6917 101.976 47.091C102.395 46.5116 102.609 45.8099 102.609 45.002C102.609 44.3428 102.465 43.79 102.175 43.3594C101.987 43.0565 101.558 42.695 100.881 42.2485Z" fill="#1E3378"/>
</svg>
